{
	"asset":{
		"generator":"Khronos glTF Blender I/O v4.4.56",
		"version":"2.0"
	},
	"scene":0,
	"scenes":[
		{
			"name":"Scene",
			"nodes":[
				0
			]
		}
	],
	"nodes":[
		{
			"mesh":0,
			"name":"NurbsPath",
			"rotation":[
				-0.10785642266273499,
				0.010208182968199253,
				0.09367038309574127,
				0.9896911978721619
			],
			"scale":[
				0.029572665691375732,
				0.02957266755402088,
				0.029572665691375732
			],
			"translation":[
				0.004466541111469269,
				0.36144232749938965,
				-0.3013566732406616
			]
		}
	],
	"animations":[
		{
			"channels":[
				{
					"sampler":0,
					"target":{
						"node":0,
						"path":"translation"
					}
				},
				{
					"sampler":1,
					"target":{
						"node":0,
						"path":"rotation"
					}
				},
				{
					"sampler":2,
					"target":{
						"node":0,
						"path":"scale"
					}
				}
			],
			"name":"NurbsPathAction",
			"samplers":[
				{
					"input":16,
					"interpolation":"LINEAR",
					"output":17
				},
				{
					"input":18,
					"interpolation":"STEP",
					"output":19
				},
				{
					"input":18,
					"interpolation":"STEP",
					"output":20
				}
			]
		}
	],
	"materials":[
		{
			"doubleSided":true,
			"name":"Material.006",
			"pbrMetallicRoughness":{
				"baseColorFactor":[
					0,
					0,
					0,
					1
				],
				"metallicFactor":0,
				"roughnessFactor":0.5
			}
		},
		{
			"doubleSided":true,
			"name":"Material.005",
			"pbrMetallicRoughness":{
				"metallicFactor":0,
				"roughnessFactor":0.5
			}
		},
		{
			"doubleSided":true,
			"name":"Material.007",
			"pbrMetallicRoughness":{
				"baseColorFactor":[
					0,
					0,
					0,
					1
				],
				"metallicFactor":0,
				"roughnessFactor":0.5
			}
		},
		{
			"doubleSided":true,
			"name":"Material.008",
			"pbrMetallicRoughness":{
				"baseColorFactor":[
					0,
					0,
					0,
					1
				],
				"metallicFactor":0,
				"roughnessFactor":0.5
			}
		}
	],
	"meshes":[
		{
			"name":"NurbsPath.001",
			"primitives":[
				{
					"attributes":{
						"POSITION":0,
						"NORMAL":1,
						"TEXCOORD_0":2
					},
					"indices":3,
					"material":0
				},
				{
					"attributes":{
						"POSITION":4,
						"NORMAL":5,
						"TEXCOORD_0":6
					},
					"indices":7,
					"material":1
				},
				{
					"attributes":{
						"POSITION":8,
						"NORMAL":9,
						"TEXCOORD_0":10
					},
					"indices":11,
					"material":2
				},
				{
					"attributes":{
						"POSITION":12,
						"NORMAL":13,
						"TEXCOORD_0":14
					},
					"indices":15,
					"material":3
				}
			]
		}
	],
	"accessors":[
		{
			"bufferView":0,
			"componentType":5126,
			"count":1587,
			"max":[
				4.183382987976074,
				1.4465115070343018,
				0.8325250148773193
			],
			"min":[
				-1.732309341430664,
				-0.6053676605224609,
				-0.07094001770019531
			],
			"type":"VEC3"
		},
		{
			"bufferView":1,
			"componentType":5126,
			"count":1587,
			"type":"VEC3"
		},
		{
			"bufferView":2,
			"componentType":5126,
			"count":1587,
			"type":"VEC2"
		},
		{
			"bufferView":3,
			"componentType":5123,
			"count":7266,
			"type":"SCALAR"
		},
		{
			"bufferView":4,
			"componentType":5126,
			"count":14082,
			"max":[
				3.376889705657959,
				5.039877891540527,
				5.165124893188477
			],
			"min":[
				-4.462742328643799,
				-15.317596435546875,
				-2.0150792598724365
			],
			"type":"VEC3"
		},
		{
			"bufferView":5,
			"componentType":5126,
			"count":14082,
			"type":"VEC3"
		},
		{
			"bufferView":6,
			"componentType":5126,
			"count":14082,
			"type":"VEC2"
		},
		{
			"bufferView":7,
			"componentType":5123,
			"count":84480,
			"type":"SCALAR"
		},
		{
			"bufferView":8,
			"componentType":5126,
			"count":362,
			"max":[
				4.029061317443848,
				0.013983726501464844,
				0.7835283279418945
			],
			"min":[
				-4.028529644012451,
				-1.1661776304244995,
				0.36355721950531006
			],
			"type":"VEC3"
		},
		{
			"bufferView":9,
			"componentType":5126,
			"count":362,
			"type":"VEC3"
		},
		{
			"bufferView":10,
			"componentType":5126,
			"count":362,
			"type":"VEC2"
		},
		{
			"bufferView":11,
			"componentType":5123,
			"count":1704,
			"type":"SCALAR"
		},
		{
			"bufferView":12,
			"componentType":5126,
			"count":180,
			"max":[
				-1.898659110069275,
				0.7843037247657776,
				0.8103138208389282
			],
			"min":[
				-3.9903554916381836,
				0.1392701268196106,
				0.7022993564605713
			],
			"type":"VEC3"
		},
		{
			"bufferView":13,
			"componentType":5126,
			"count":180,
			"type":"VEC3"
		},
		{
			"bufferView":14,
			"componentType":5126,
			"count":180,
			"type":"VEC2"
		},
		{
			"bufferView":15,
			"componentType":5123,
			"count":852,
			"type":"SCALAR"
		},
		{
			"bufferView":16,
			"componentType":5126,
			"count":39,
			"max":[
				1.625
			],
			"min":[
				0.041666666666666664
			],
			"type":"SCALAR"
		},
		{
			"bufferView":17,
			"componentType":5126,
			"count":39,
			"type":"VEC3"
		},
		{
			"bufferView":18,
			"componentType":5126,
			"count":2,
			"max":[
				1.625
			],
			"min":[
				0.041666666666666664
			],
			"type":"SCALAR"
		},
		{
			"bufferView":19,
			"componentType":5126,
			"count":2,
			"type":"VEC4"
		},
		{
			"bufferView":20,
			"componentType":5126,
			"count":2,
			"type":"VEC3"
		}
	],
	"bufferViews":[
		{
			"buffer":0,
			"byteLength":19044,
			"byteOffset":0,
			"target":34962
		},
		{
			"buffer":0,
			"byteLength":19044,
			"byteOffset":19044,
			"target":34962
		},
		{
			"buffer":0,
			"byteLength":12696,
			"byteOffset":38088,
			"target":34962
		},
		{
			"buffer":0,
			"byteLength":14532,
			"byteOffset":50784,
			"target":34963
		},
		{
			"buffer":0,
			"byteLength":168984,
			"byteOffset":65316,
			"target":34962
		},
		{
			"buffer":0,
			"byteLength":168984,
			"byteOffset":234300,
			"target":34962
		},
		{
			"buffer":0,
			"byteLength":112656,
			"byteOffset":403284,
			"target":34962
		},
		{
			"buffer":0,
			"byteLength":168960,
			"byteOffset":515940,
			"target":34963
		},
		{
			"buffer":0,
			"byteLength":4344,
			"byteOffset":684900,
			"target":34962
		},
		{
			"buffer":0,
			"byteLength":4344,
			"byteOffset":689244,
			"target":34962
		},
		{
			"buffer":0,
			"byteLength":2896,
			"byteOffset":693588,
			"target":34962
		},
		{
			"buffer":0,
			"byteLength":3408,
			"byteOffset":696484,
			"target":34963
		},
		{
			"buffer":0,
			"byteLength":2160,
			"byteOffset":699892,
			"target":34962
		},
		{
			"buffer":0,
			"byteLength":2160,
			"byteOffset":702052,
			"target":34962
		},
		{
			"buffer":0,
			"byteLength":1440,
			"byteOffset":704212,
			"target":34962
		},
		{
			"buffer":0,
			"byteLength":1704,
			"byteOffset":705652,
			"target":34963
		},
		{
			"buffer":0,
			"byteLength":156,
			"byteOffset":707356
		},
		{
			"buffer":0,
			"byteLength":468,
			"byteOffset":707512
		},
		{
			"buffer":0,
			"byteLength":8,
			"byteOffset":707980
		},
		{
			"buffer":0,
			"byteLength":32,
			"byteOffset":707988
		},
		{
			"buffer":0,
			"byteLength":24,
			"byteOffset":708020
		}
	],
	"buffers":[
		{
			"byteLength":708044,
			"uri":"deadkakis.bin"
		}
	]
}
