{
	"asset":{
		"generator":"Khronos glTF Blender I/O v3.6.27",
		"version":"2.0"
	},
	"scene":0,
	"scenes":[
		{
			"extras":{
				"uuid":"6a9264b5-9a7f-4210-9485-14fc4e9aba2f",
				"assets reported":{}
			},
			"name":"Scene",
			"nodes":[
				0,
				1,
				2,
				3,
				4,
				5,
				6,
				7
			]
		}
	],
	"nodes":[
		{
			"mesh":0,
			"name":"Plane",
			"rotation":[
				0,
				0,
				-0.038522351533174515,
				0.9992577433586121
			]
		},
		{
			"mesh":1,
			"name":"Sphere",
			"rotation":[
				0,
				0,
				0.049375519156455994,
				0.9987803101539612
			],
			"scale":[
				-0.026227237656712532,
				-0.054290078580379486,
				-0.03387491777539253
			],
			"translation":[
				0.26172611117362976,
				1.3639671802520752,
				-0.31875622272491455
			]
		},
		{
			"mesh":2,
			"name":"Sphere.001",
			"rotation":[
				0,
				0,
				0.049375519156455994,
				0.9987803101539612
			],
			"scale":[
				-0.026227237656712532,
				-0.054290078580379486,
				-0.03387491777539253
			],
			"translation":[
				-0.030497154220938683,
				1.3428058624267578,
				-0.3169512152671814
			]
		},
		{
			"mesh":3,
			"name":"NurbsPath",
			"rotation":[
				-0.10785643011331558,
				0.010208182036876678,
				0.09367038309574127,
				0.9896911978721619
			],
			"scale":[
				0.09136355668306351,
				0.09136354923248291,
				0.09136354178190231
			],
			"translation":[
				0.11639797687530518,
				1.2726061344146729,
				-0.35712575912475586
			]
		},
		{
			"mesh":4,
			"name":"NurbsPath.002",
			"rotation":[
				0,
				0,
				0.32171645760536194,
				0.9468360543251038
			],
			"scale":[
				0.48974141478538513,
				0.48974141478538513,
				0.48974141478538513
			],
			"translation":[
				0.40000012516975403,
				1.3139207363128662,
				-0.30112409591674805
			]
		},
		{
			"mesh":5,
			"name":"NurbsPath.003",
			"rotation":[
				0,
				0,
				0.32171645760536194,
				0.9468360543251038
			],
			"scale":[
				0.48974141478538513,
				0.48974141478538513,
				0.48974141478538513
			],
			"translation":[
				0.40000012516975403,
				1.2308181524276733,
				-0.30112409591674805
			]
		},
		{
			"mesh":6,
			"name":"NurbsPath.004",
			"rotation":[
				-0.2580568194389343,
				-0.966129720211029,
				0,
				2.7900901500288455e-07
			],
			"scale":[
				0.4897414445877075,
				0.4897414445877075,
				0.48974141478538513
			],
			"translation":[
				-0.14473599195480347,
				1.1963040828704834,
				-0.30112409591674805
			]
		},
		{
			"mesh":7,
			"name":"NurbsPath.005",
			"rotation":[
				-0.2580568194389343,
				-0.966129720211029,
				0,
				2.7900901500288455e-07
			],
			"scale":[
				0.4897414445877075,
				0.4897414445877075,
				0.48974141478538513
			],
			"translation":[
				-0.15576127171516418,
				1.2786720991134644,
				-0.30112409591674805
			]
		}
	],
	"materials":[
		{
			"alphaMode":"BLEND",
			"doubleSided":true,
			"name":"Material",
			"pbrMetallicRoughness":{
				"baseColorFactor":[
					0.800000011920929,
					0.800000011920929,
					0.800000011920929,
					0.5
				],
				"metallicFactor":0,
				"roughnessFactor":0.5
			}
		},
		{
			"doubleSided":true,
			"name":"Material.001",
			"pbrMetallicRoughness":{
				"baseColorFactor":[
					0,
					0,
					0,
					1
				],
				"metallicFactor":0,
				"roughnessFactor":0.5
			}
		},
		{
			"doubleSided":true,
			"name":"Material.002",
			"pbrMetallicRoughness":{
				"baseColorFactor":[
					0,
					0,
					0,
					1
				],
				"metallicFactor":0,
				"roughnessFactor":0.5
			}
		},
		{
			"doubleSided":true,
			"name":"Material.003",
			"pbrMetallicRoughness":{
				"baseColorFactor":[
					0,
					0,
					0,
					1
				],
				"metallicFactor":0,
				"roughnessFactor":0.5
			}
		},
		{
			"doubleSided":true,
			"name":"Material.004",
			"pbrMetallicRoughness":{
				"baseColorFactor":[
					0,
					0,
					0,
					1
				],
				"metallicFactor":0,
				"roughnessFactor":0.5
			}
		}
	],
	"meshes":[
		{
			"name":"Plane",
			"primitives":[
				{
					"attributes":{
						"POSITION":0,
						"NORMAL":1
					},
					"indices":2,
					"material":0
				}
			]
		},
		{
			"name":"Sphere",
			"primitives":[
				{
					"attributes":{
						"POSITION":3,
						"NORMAL":4,
						"TEXCOORD_0":5
					},
					"indices":6,
					"material":1
				}
			]
		},
		{
			"name":"Sphere.001",
			"primitives":[
				{
					"attributes":{
						"POSITION":7,
						"NORMAL":8,
						"TEXCOORD_0":9
					},
					"indices":10,
					"material":1
				}
			]
		},
		{
			"name":"NurbsPath",
			"primitives":[
				{
					"attributes":{
						"POSITION":11,
						"NORMAL":12,
						"TEXCOORD_0":13
					},
					"indices":14,
					"material":1
				}
			]
		},
		{
			"name":"NurbsPath.002",
			"primitives":[
				{
					"attributes":{
						"POSITION":15,
						"NORMAL":16,
						"TEXCOORD_0":17
					},
					"indices":18,
					"material":1
				}
			]
		},
		{
			"name":"NurbsPath.003",
			"primitives":[
				{
					"attributes":{
						"POSITION":19,
						"NORMAL":20,
						"TEXCOORD_0":21
					},
					"indices":22,
					"material":2
				}
			]
		},
		{
			"name":"NurbsPath.004",
			"primitives":[
				{
					"attributes":{
						"POSITION":23,
						"NORMAL":24,
						"TEXCOORD_0":25
					},
					"indices":26,
					"material":3
				}
			]
		},
		{
			"name":"NurbsPath.005",
			"primitives":[
				{
					"attributes":{
						"POSITION":27,
						"NORMAL":28,
						"TEXCOORD_0":29
					},
					"indices":30,
					"material":4
				}
			]
		}
	],
	"accessors":[
		{
			"bufferView":0,
			"componentType":5126,
			"count":56306,
			"max":[
				0.3589961528778076,
				1.7904049158096313,
				0.1630324125289917
			],
			"min":[
				-0.3104865849018097,
				-0.11611824482679367,
				-0.3658759593963623
			],
			"type":"VEC3"
		},
		{
			"bufferView":1,
			"componentType":5126,
			"count":56306,
			"type":"VEC3"
		},
		{
			"bufferView":2,
			"componentType":5123,
			"count":84480,
			"type":"SCALAR"
		},
		{
			"bufferView":3,
			"componentType":5126,
			"count":216,
			"max":[
				0.6110988259315491,
				0.9248110055923462,
				0.9999983310699463
			],
			"min":[
				-0.9418432712554932,
				-0.6857330203056335,
				0.23030181229114532
			],
			"type":"VEC3"
		},
		{
			"bufferView":4,
			"componentType":5126,
			"count":216,
			"type":"VEC3"
		},
		{
			"bufferView":5,
			"componentType":5126,
			"count":216,
			"type":"VEC2"
		},
		{
			"bufferView":6,
			"componentType":5123,
			"count":822,
			"type":"SCALAR"
		},
		{
			"bufferView":7,
			"componentType":5126,
			"count":230,
			"max":[
				0.953467845916748,
				0.9121102094650269,
				1.000000238418579
			],
			"min":[
				-0.619063675403595,
				-0.7782586216926575,
				0.22241835296154022
			],
			"type":"VEC3"
		},
		{
			"bufferView":8,
			"componentType":5126,
			"count":230,
			"type":"VEC3"
		},
		{
			"bufferView":9,
			"componentType":5126,
			"count":230,
			"type":"VEC2"
		},
		{
			"bufferView":10,
			"componentType":5123,
			"count":882,
			"type":"SCALAR"
		},
		{
			"bufferView":11,
			"componentType":5126,
			"count":926,
			"max":[
				0.7884840965270996,
				0.47848033905029297,
				0.0705108642578125
			],
			"min":[
				-0.8558756113052368,
				-0.6053676605224609,
				-0.07094001770019531
			],
			"type":"VEC3"
		},
		{
			"bufferView":12,
			"componentType":5126,
			"count":926,
			"type":"VEC3"
		},
		{
			"bufferView":13,
			"componentType":5126,
			"count":926,
			"type":"VEC2"
		},
		{
			"bufferView":14,
			"componentType":5123,
			"count":4710,
			"type":"SCALAR"
		},
		{
			"bufferView":15,
			"componentType":5126,
			"count":180,
			"max":[
				0.1833556741476059,
				0.09645455330610275,
				0.034651245921850204
			],
			"min":[
				-0.1833556741476059,
				-0.09645455330610275,
				-0.034651242196559906
			],
			"type":"VEC3"
		},
		{
			"bufferView":16,
			"componentType":5126,
			"count":180,
			"type":"VEC3"
		},
		{
			"bufferView":17,
			"componentType":5126,
			"count":180,
			"type":"VEC2"
		},
		{
			"bufferView":18,
			"componentType":5123,
			"count":852,
			"type":"SCALAR"
		},
		{
			"bufferView":19,
			"componentType":5126,
			"count":180,
			"max":[
				0.1857723891735077,
				0.1833963394165039,
				0.035003483295440674
			],
			"min":[
				-0.09551418572664261,
				-0.09463697671890259,
				-0.03457595407962799
			],
			"type":"VEC3"
		},
		{
			"bufferView":20,
			"componentType":5126,
			"count":180,
			"type":"VEC3"
		},
		{
			"bufferView":21,
			"componentType":5126,
			"count":180,
			"type":"VEC2"
		},
		{
			"bufferView":22,
			"componentType":5123,
			"count":852,
			"type":"SCALAR"
		},
		{
			"bufferView":23,
			"componentType":5126,
			"count":180,
			"max":[
				0.1859470158815384,
				0.18333788216114044,
				-0.014749226160347462
			],
			"min":[
				-0.09568878263235092,
				-0.09457854181528091,
				-0.042029187083244324
			],
			"type":"VEC3"
		},
		{
			"bufferView":24,
			"componentType":5126,
			"count":180,
			"type":"VEC3"
		},
		{
			"bufferView":25,
			"componentType":5126,
			"count":180,
			"type":"VEC2"
		},
		{
			"bufferView":26,
			"componentType":5123,
			"count":852,
			"type":"SCALAR"
		},
		{
			"bufferView":27,
			"componentType":5126,
			"count":180,
			"max":[
				0.1833227276802063,
				0.09643843024969101,
				-0.014746623113751411
			],
			"min":[
				-0.1833226978778839,
				-0.0964384451508522,
				-0.04005841910839081
			],
			"type":"VEC3"
		},
		{
			"bufferView":28,
			"componentType":5126,
			"count":180,
			"type":"VEC3"
		},
		{
			"bufferView":29,
			"componentType":5126,
			"count":180,
			"type":"VEC2"
		},
		{
			"bufferView":30,
			"componentType":5123,
			"count":852,
			"type":"SCALAR"
		}
	],
	"bufferViews":[
		{
			"buffer":0,
			"byteLength":675672,
			"byteOffset":0,
			"target":34962
		},
		{
			"buffer":0,
			"byteLength":675672,
			"byteOffset":675672,
			"target":34962
		},
		{
			"buffer":0,
			"byteLength":168960,
			"byteOffset":1351344,
			"target":34963
		},
		{
			"buffer":0,
			"byteLength":2592,
			"byteOffset":1520304,
			"target":34962
		},
		{
			"buffer":0,
			"byteLength":2592,
			"byteOffset":1522896,
			"target":34962
		},
		{
			"buffer":0,
			"byteLength":1728,
			"byteOffset":1525488,
			"target":34962
		},
		{
			"buffer":0,
			"byteLength":1644,
			"byteOffset":1527216,
			"target":34963
		},
		{
			"buffer":0,
			"byteLength":2760,
			"byteOffset":1528860,
			"target":34962
		},
		{
			"buffer":0,
			"byteLength":2760,
			"byteOffset":1531620,
			"target":34962
		},
		{
			"buffer":0,
			"byteLength":1840,
			"byteOffset":1534380,
			"target":34962
		},
		{
			"buffer":0,
			"byteLength":1764,
			"byteOffset":1536220,
			"target":34963
		},
		{
			"buffer":0,
			"byteLength":11112,
			"byteOffset":1537984,
			"target":34962
		},
		{
			"buffer":0,
			"byteLength":11112,
			"byteOffset":1549096,
			"target":34962
		},
		{
			"buffer":0,
			"byteLength":7408,
			"byteOffset":1560208,
			"target":34962
		},
		{
			"buffer":0,
			"byteLength":9420,
			"byteOffset":1567616,
			"target":34963
		},
		{
			"buffer":0,
			"byteLength":2160,
			"byteOffset":1577036,
			"target":34962
		},
		{
			"buffer":0,
			"byteLength":2160,
			"byteOffset":1579196,
			"target":34962
		},
		{
			"buffer":0,
			"byteLength":1440,
			"byteOffset":1581356,
			"target":34962
		},
		{
			"buffer":0,
			"byteLength":1704,
			"byteOffset":1582796,
			"target":34963
		},
		{
			"buffer":0,
			"byteLength":2160,
			"byteOffset":1584500,
			"target":34962
		},
		{
			"buffer":0,
			"byteLength":2160,
			"byteOffset":1586660,
			"target":34962
		},
		{
			"buffer":0,
			"byteLength":1440,
			"byteOffset":1588820,
			"target":34962
		},
		{
			"buffer":0,
			"byteLength":1704,
			"byteOffset":1590260,
			"target":34963
		},
		{
			"buffer":0,
			"byteLength":2160,
			"byteOffset":1591964,
			"target":34962
		},
		{
			"buffer":0,
			"byteLength":2160,
			"byteOffset":1594124,
			"target":34962
		},
		{
			"buffer":0,
			"byteLength":1440,
			"byteOffset":1596284,
			"target":34962
		},
		{
			"buffer":0,
			"byteLength":1704,
			"byteOffset":1597724,
			"target":34963
		},
		{
			"buffer":0,
			"byteLength":2160,
			"byteOffset":1599428,
			"target":34962
		},
		{
			"buffer":0,
			"byteLength":2160,
			"byteOffset":1601588,
			"target":34962
		},
		{
			"buffer":0,
			"byteLength":1440,
			"byteOffset":1603748,
			"target":34962
		},
		{
			"buffer":0,
			"byteLength":1704,
			"byteOffset":1605188,
			"target":34963
		}
	],
	"buffers":[
		{
			"byteLength":1606892,
			"uri":"data:application/octet-stream;base64,"
		}
	]
}
